#!OML:ASF X:\für Bonn\!DataBase\2005_08_12_Daniel\c3d\Daniel.ASF
:FULLY-SPECIFIED
:DEGREES
148
root 0.578334 16.0177 -0.729933 62.0457 -86.8775 -74.5013
lowerback 34.57 -2.91499 5.88819
upperback 2.65769 -2.1577 -1.5454
thorax -14.968 -1.51739 -3.87499
lowerneck 2.2452 1.40861 -2.21327
upperneck 0.827575 1.81058 -0.616522
head -0.127781 0.895378 0.158464
rclavicle 7.45443e-015 7.95139e-016
rhumerus 60.8867 -2.45026 -99.9516
rradius 8.75307
rwrist 64.016
rhand -20.1175 9.18831
rfingers 7.12502
rthumb 6.22642 -20.7002
lclavicle 7.45443e-015 7.95139e-016
lhumerus 63.7036 8.23636 100.01
lradius 11.0608
lwrist -76.5396
lhand -16.4063 2.30739
lfingers 7.12502
lthumb 9.80821 32.059
rfemur -19.2349 -15.7896 12.0206
rtibia 62.8667
rfoot -7.63517 10.0283
rtoes -9.39444
lfemur -21.4789 8.79033 -7.52157
ltibia 63.0311
lfoot -21.212 -8.17201
ltoes 0.667921
149
root 0.552086 16.1356 -0.734367 62.2492 -86.8309 -74.4763
lowerback 33.9332 -2.88575 5.86204
upperback 2.5312 -2.14195 -1.51036
thorax -14.854 -1.50199 -3.8469
lowerneck 2.12491 1.41561 -2.24155
upperneck 1.06608 1.82426 -0.595081
head -0.0368738 0.898882 0.171091
rclavicle -1.14301e-014 9.93923e-015
rhumerus 60.8035 -2.60354 -100.085
rradius 8.59568
rwrist 63.8356
rhand -20.2667 9.27891
rfingers 7.12502
rthumb 6.08231 -20.6138
lclavicle -1.14301e-014 9.93923e-015
lhumerus 63.4525 7.94984 99.2572
lradius 11.065
lwrist -75.6976
lhand -16.4009 2.33766
lfingers 7.12502
lthumb 9.81339 32.089
rfemur -18.1184 -15.387 12.327
rtibia 60.8206
rfoot -7.82158 9.48456
rtoes -9.42342
lfemur -20.5582 8.01766 -7.72592
ltibia 61.2548
lfoot -21.1132 -7.27838
ltoes 0.544244
150
root 0.524901 16.2464 -0.739493 62.3918 -86.8132 -74.376
lowerback 33.2654 -2.85618 5.79742
upperback 2.41604 -2.14602 -1.49526
thorax -14.712 -1.49306 -3.81218
lowerneck 1.97323 1.42737 -2.22988
upperneck 1.29723 1.84618 -0.587619
head 0.0570871 0.906775 0.173325
rclavicle 1.78906e-015 4.37326e-015
rhumerus 60.7159 -2.71947 -100.267
rradius 8.49079
rwrist 63.6522
rhand -20.4805 9.40084
rfingers 7.12502
rthumb 5.8759 -20.4977
lclavicle 1.78906e-015 4.37326e-015
lhumerus 63.2674 7.65885 98.4535
lradius 10.9989
lwrist -74.7685
lhand -16.3741 2.39135
lfingers 7.12502
lthumb 9.83929 32.1415
rfemur -17.0326 -14.9486 12.6106
rtibia 58.7972
rfoot -8.0024 8.92098
rtoes -9.38158
lfemur -19.6681 7.25031 -7.95453
ltibia 59.5114
lfoot -21.0235 -6.40954
ltoes 0.451365
151
root 0.496473 16.3529 -0.744233 62.7031 -86.7883 -74.4511
lowerback 32.6106 -2.81666 5.74697
upperback 2.27656 -2.12798 -1.47253
thorax -14.5969 -1.47581 -3.78585
lowerneck 1.83988 1.43249 -2.23896
upperneck 1.57229 1.8582 -0.559373
head 0.160838 0.90904 0.185597
rclavicle 1.16289e-014 2.5842e-014
rhumerus 60.5757 -2.91662 -100.397
rradius 8.42866
rwrist 63.5565
rhand -20.7624 9.53065
rfingers 7.12502
rthumb 5.6038 -20.3753
lclavicle 1.16289e-014 2.5842e-014
lhumerus 63.0531 7.30499 97.5835
lradius 10.8987
lwrist -73.7101
lhand -16.3383 2.43459
lfingers 7.12502
lthumb 9.8738 32.1831
rfemur -15.9564 -14.4833 12.9107
rtibia 56.7897
rfoot -8.24226 8.32226
rtoes -9.50921
lfemur -18.779 6.45557 -8.17109
ltibia 57.8079
lfoot -20.9929 -5.4968
ltoes 0.41875
152
root 0.467241 16.4542 -0.750609 62.8258 -86.7513 -74.3124
lowerback 31.947 -2.78042 5.67289
upperback 2.10499 -2.11785 -1.43365
thorax -14.5103 -1.46079 -3.72586
lowerneck 1.77638 1.4462 -2.22863
upperneck 1.81511 1.87946 -0.54895
head 0.243985 0.916404 0.188807
rclavicle -3.47873e-015 6.75868e-015
rhumerus 60.3534 -3.08987 -100.526
rradius 8.46284
rwrist 63.4884
rhand -21.0277 9.68152
rfingers 7.12502
rthumb 5.34758 -20.231
lclavicle -3.47873e-015 6.75868e-015
lhumerus 62.8262 7.02552 96.846
lradius 10.7905
lwrist -72.764
lhand -16.3383 2.4111
lfingers 7.12502
lthumb 9.87377 32.1596
rfemur -14.9084 -13.9582 13.2384
rtibia 54.8049
rfoot -8.48499 7.70319
rtoes -9.48739
lfemur -17.9466 5.62845 -8.37555
ltibia 56.1473
lfoot -20.9679 -4.56678
ltoes 0.376608
153
root 0.438107 16.5485 -0.756103 62.9285 -86.7346 -74.1423
lowerback 31.2736 -2.74553 5.60318
upperback 1.93028 -2.11141 -1.4166
thorax -14.4202 -1.44847 -3.6907
lowerneck 1.67288 1.45511 -2.1676
upperneck 2.09513 1.89677 -0.581779
head 0.345884 0.921477 0.17147
rclavicle 1.49089e-016 5.96354e-015
rhumerus 60.0104 -3.33191 -100.636
rradius 8.70153
rwrist 63.4911
rhand -21.2511 9.8944
rfingers 7.12502
rthumb 5.13193 -20.0235
lclavicle 1.49089e-016 5.96354e-015
lhumerus 62.5843 6.57579 95.7751
lradius 10.6665
lwrist -71.3748
lhand -16.3758 2.44246
lfingers 7.12502
lthumb 9.83758 32.1926
rfemur -13.8969 -13.3928 13.5536
rtibia 52.8405
rfoot -8.77115 7.0223
rtoes -9.59298
lfemur -17.1487 4.77968 -8.60742
ltibia 54.5335
lfoot -20.9981 -3.64035
ltoes 0.330273
154
root 0.407548 16.639 -0.762607 63.0337 -86.7192 -73.956
lowerback 30.5953 -2.7087 5.51062
upperback 1.72077 -2.10462 -1.37839
thorax -14.3617 -1.43477 -3.62018
lowerneck 1.67014 1.47403 -2.20314
upperneck 2.30846 1.92163 -0.554833
head 0.410121 0.930632 0.186666
rclavicle 1.59028e-015 9.54166e-015
rhumerus 59.5696 -3.6095 -100.695
rradius 9.02371
rwrist 63.5759
rhand -21.5121 10.1479
rfingers 7.12502
rthumb 4.87986 -19.7759
lclavicle 1.59028e-015 9.54166e-015
lhumerus 62.2835 6.16567 94.7181
lradius 10.5612
lwrist -69.946
lhand -16.5016 2.34386
lfingers 7.12502
lthumb 9.71628 32.0997
rfemur -12.9079 -12.7866 13.8795
rtibia 50.8976
rfoot -9.10371 6.32344
rtoes -9.53139
lfemur -16.3932 3.91985 -8.83472
ltibia 52.9698
lfoot -21.0492 -2.68446
ltoes 0.296118
155
root 0.378426 16.7232 -0.768264 63.4361 -86.6739 -74.0692
lowerback 29.9545 -2.68254 5.46698
upperback 1.48234 -2.09245 -1.34865
thorax -14.3499 -1.42333 -3.58647
lowerneck 1.68382 1.49154 -2.16406
upperneck 2.55916 1.94537 -0.55588
head 0.484094 0.93916 0.181426
rclavicle 1.21259e-014 1.98785e-015
rhumerus 58.9963 -3.96912 -100.735
rradius 9.48638
rwrist 63.706
rhand -21.6947 10.4845
rfingers 7.12502
rthumb 4.70361 -19.4433
lclavicle 1.21259e-014 1.98785e-015
lhumerus 61.9055 5.63823 93.4604
lradius 10.4957
lwrist -68.2566
lhand -16.7865 2.29572
lfingers 7.12502
lthumb 9.44137 32.0642
rfemur -11.9313 -12.0792 14.2644
rtibia 48.9689
rfoot -9.48219 5.54856
rtoes -9.58022
lfemur -15.6601 3.02424 -9.02527
ltibia 51.4562
lfoot -21.1319 -1.73609
ltoes 0.280328
156
root 0.349253 16.7995 -0.774995 63.5891 -86.6566 -73.9408
lowerback 29.3311 -2.64909 5.37137
upperback 1.23962 -2.08583 -1.30659
thorax -14.3449 -1.41114 -3.50817
lowerneck 1.68686 1.51078 -2.15513
upperneck 2.82068 1.97147 -0.582801
head 0.563296 0.948131 0.173459
rclavicle -9.69075e-015 -3.18055e-015
rhumerus 58.3735 -4.33841 -100.719
rradius 10.0308
rwrist 63.7774
rhand -21.7627 10.8654
rfingers 7.12502
rthumb 4.63795 -19.0639
lclavicle -9.69075e-015 -3.18055e-015
lhumerus 61.5253 5.02132 92.0206
lradius 10.4237
lwrist -66.3311
lhand -17.0818 2.22956
lfingers 7.12502
lthumb 9.15638 32.0108
rfemur -10.959 -11.3239 14.6257
rtibia 47.0662
rfoot -9.93659 4.74602
rtoes -9.6295
lfemur -14.9468 2.13844 -9.24322
ltibia 49.9883
lfoot -21.2389 -0.762429
ltoes 0.231029
157
root 0.320333 16.8723 -0.780566 63.6929 -86.6213 -73.7636
lowerback 28.7169 -2.62805 5.31709
upperback 0.983773 -2.08303 -1.28105
thorax -14.3576 -1.40453 -3.46845
lowerneck 1.73394 1.52691 -2.10171
upperneck 3.05173 1.99241 -0.606181
head 0.62661 0.955394 0.158731
rclavicle 1.18774e-014 9.54166e-015
rhumerus 57.5787 -3.19383 -98.2814
rradius 10.5513
rwrist 60.978
rhand -21.753 10.7642
rfingers 7.12502
rthumb 4.64729 -19.1648
lclavicle 1.18774e-014 9.54166e-015
lhumerus 61.1267 4.31036 90.4322
lradius 10.3545
lwrist -64.2545
lhand -17.4678 2.11893
lfingers 7.12502
lthumb 8.78389 31.9161
rfemur -9.98062 -10.5319 15.0043
rtibia 45.17
rfoot -10.4316 3.88404
rtoes -9.62142
lfemur -14.2556 1.15306 -9.4576
ltibia 48.568
lfoot -21.4157 0.257612
ltoes 0.27597
158
root 0.292615 16.9405 -0.787092 63.945 -86.6123 -73.7376
lowerback 28.0764 -2.5925 5.22794
upperback 0.742871 -2.07581 -1.25835
thorax -14.3351 -1.39332 -3.41504
lowerneck 1.86984 1.54295 -2.08963
upperneck 3.21137 2.00876 -0.589967
head 0.652917 0.961158 0.161393
rclavicle 8.00108e-015 -1.11319e-014
rhumerus 56.9268 -2.14749 -96.1328
rradius 10.9696
rwrist 58.385
rhand -21.6405 10.7135
rfingers 7.12502
rthumb 4.75586 -19.2131
lclavicle 8.00108e-015 -1.11319e-014
lhumerus 60.6455 3.50554 88.699
lradius 10.5085
lwrist -62.0301
lhand -17.8587 1.9814
lfingers 7.12502
lthumb 8.40667 31.7941
rfemur -9.02145 -9.62029 15.3915
rtibia 43.3037
rfoot -11.0171 2.94608
rtoes -9.76258
lfemur -13.5713 0.0903816 -9.71089
ltibia 47.1866
lfoot -21.6691 1.37065
ltoes 0.205341
159
root 0.265205 17.0018 -0.792812 64.0434 -86.578 -73.5582
lowerback 27.4726 -2.57314 5.17124
upperback 0.480404 -2.07592 -1.23159
thorax -14.3522 -1.38859 -3.37089
lowerneck 1.99033 1.5627 -2.03048
upperneck 3.3805 2.03202 -0.619816
head 0.685521 0.970392 0.142644
rclavicle 1.91827e-014 -5.1684e-015
rhumerus 56.3726 -1.0168 -93.8882
rradius 11.2469
rwrist 55.6123
rhand -21.4981 10.7339
rfingers 7.12502
rthumb 4.89336 -19.1896
lclavicle 1.91827e-014 -5.1684e-015
lhumerus 60.0895 2.59047 86.7993
lradius 10.8619
lwrist -59.5648
lhand -18.0679 1.85017
lfingers 7.12502
lthumb 8.20485 31.6709
rfemur -8.06287 -8.67265 15.8039
rtibia 41.4581
rfoot -11.6679 1.94949
rtoes -9.83686
lfemur -12.9236 -1.04982 -9.95603
ltibia 45.871
lfoot -21.9996 2.52511
ltoes 0.205803
160
root 0.239847 17.0561 -0.798436 64.0496 -86.5766 -73.3238
lowerback 26.9375 -2.5453 5.0882
upperback 0.565048 -2.07043 -1.12445
thorax -14.7258 -1.40761 -3.42763
lowerneck 2.10987 1.5729 -1.92279
upperneck 3.53472 2.04373 -0.661818
head 0.71442 0.974636 0.112233
rclavicle -1.15295e-014 -1.19271e-014
rhumerus 55.9499 -0.0184993 -91.9519
rradius 11.4299
rwrist 53.0314
rhand -21.3361 10.8534
rfingers 7.12502
rthumb 5.04986 -19.0664
lclavicle -1.15295e-014 -1.19271e-014
lhumerus 59.5313 1.64905 84.9246
lradius 11.3586
lwrist -57.2117
lhand -18.2167 1.73941
lfingers 7.12502
lthumb 8.06123 31.5657
rfemur -7.10705 -7.65092 16.1916
rtibia 39.6703
rfoot -12.3559 0.898535
rtoes -9.92907
lfemur -12.2649 -2.27419 -10.2516
ltibia 44.6121
lfoot -22.4706 3.76114
ltoes 0.153002
161
root 0.21548 17.1024 -0.804041 64.2789 -86.5473 -73.3243
lowerback 26.4222 -2.52715 5.0334
upperback 0.300042 -2.0697 -1.10757
thorax -14.756 -1.40279 -3.38327
lowerneck 2.24554 1.58509 -1.83481
upperneck 3.67325 2.05778 -0.72751
head 0.735975 0.979789 0.0775891
rclavicle 2.11457e-014 5.56597e-015
rhumerus 55.6256 1.14236 -89.7854
rradius 11.5193
rwrist 50.1612
rhand -21.1714 11.0073
rfingers 7.12502
rthumb 5.20881 -18.9087
lclavicle 2.11457e-014 5.56597e-015
lhumerus 59.051 0.731863 83.1091
lradius 11.8113
lwrist -54.9214
lhand -18.2578 1.56759
lfingers 7.12502
lthumb 8.02156 31.3954
rfemur -6.17107 -6.53222 16.6332
rtibia 37.946
rfoot -13.1265 -0.234304
rtoes -10.0367
lfemur -11.6381 -3.58458 -10.5239
ltibia 43.4437
lfoot -23.0265 5.04628
ltoes 0.0897998
162
root 0.192452 17.1399 -0.809569 64.3726 -86.5484 -73.2187
lowerback 25.9666 -2.5009 4.95428
upperback 0.0253977 -2.06549 -1.10759
thorax -14.8285 -1.39684 -3.34504
lowerneck 2.4322 1.58827 -1.73617
upperneck 3.77972 2.05853 -0.789845
head 0.739496 0.978935 0.0415739
rclavicle -5.26779e-015 0
rhumerus 55.3431 2.38112 -87.4945
rradius 11.558
rwrist 47.1032
rhand -21.0944 11.2708
rfingers 7.12502
rthumb 5.28323 -18.6433
lclavicle -5.26779e-015 0
lhumerus 58.6552 -0.351948 81.0262
lradius 12.1477
lwrist -52.313
lhand -18.3021 1.37969
lfingers 7.12502
lthumb 7.97876 31.2091
rfemur -5.25549 -5.34027 17.0601
rtibia 36.3181
rfoot -13.9842 -1.45713
rtoes -10.2706
lfemur -11.0169 -4.96475 -10.8445
ltibia 42.3575
lfoot -23.6123 6.33762
ltoes 0.2112
